<svg width="12" height="15" viewBox="0 0 12 15" fill="none" xmlns="http://www.w3.org/2000/svg">
<path d="M2.085 0H1.5C1.10218 0 0.720644 0.158035 0.43934 0.43934C0.158035 0.720644 0 1.10218 0 1.5V13.5C0 13.8978 0.158035 14.2794 0.43934 14.5607C0.720644 14.842 1.10218 15 1.5 15H10.5C10.8978 15 11.2794 14.842 11.5607 14.5607C11.842 14.2794 12 13.8978 12 13.5V1.5C12 1.10218 11.842 0.720644 11.5607 0.43934C11.2794 0.158035 10.8978 0 10.5 0H9.915C9.97 0.156 10 0.325 10 0.5V1C10 1.39782 9.84196 1.77936 9.56066 2.06066C9.27936 2.34196 8.89782 2.5 8.5 2.5H3.5C3.10218 2.5 2.72064 2.34196 2.43934 2.06066C2.15804 1.77936 2 1.39782 2 1V0.5C2 0.325 2.03 0.156 2.085 0ZM7.98 4.356L9.372 9H9.5C9.63261 9 9.75979 9.05268 9.85355 9.14645C9.94732 9.24021 10 9.36739 10 9.5C10 9.63261 9.94732 9.75979 9.85355 9.85355C9.75979 9.94732 9.63261 10 9.5 10H9C8.8925 10 8.78784 9.96543 8.70156 9.9013C8.61528 9.83718 8.55196 9.74695 8.521 9.644L7.581 6.509L6.489 11.605C6.46583 11.7136 6.40717 11.8114 6.32228 11.8829C6.23738 11.9545 6.13108 11.9958 6.02014 12.0002C5.9092 12.0047 5.79992 11.9721 5.70954 11.9076C5.61917 11.8431 5.55283 11.7504 5.521 11.644L4.383 7.85L3.447 9.723C3.40557 9.80613 3.34181 9.87609 3.26286 9.92501C3.1839 9.97394 3.09288 9.9999 3 10H2.5C2.36739 10 2.24021 9.94732 2.14645 9.85355C2.05268 9.75979 2 9.63261 2 9.5C2 9.36739 2.05268 9.24021 2.14645 9.14645C2.24021 9.05268 2.36739 9 2.5 9H2.691L4.053 6.276C4.09783 6.18644 4.16852 6.1124 4.25591 6.06349C4.34331 6.01457 4.44338 5.99303 4.54316 6.00165C4.64294 6.01027 4.73783 6.04865 4.81554 6.11183C4.89325 6.17502 4.9502 6.26008 4.979 6.356L5.919 9.491L7.011 4.395C7.03417 4.28641 7.09283 4.18863 7.17772 4.11706C7.26262 4.0455 7.36892 4.00423 7.47986 3.99976C7.5908 3.99529 7.70008 4.02787 7.79046 4.09237C7.88083 4.15688 7.94817 4.24963 7.98 4.356Z" fill="black"/>
</svg>
